<svg xmlns="http://www.w3.org/2000/svg" width="104" height="80" fill="none">
  <path fill="#FFC498" fill-rule="evenodd" d="M40.196 76.62c32.1 3.025 63.657 9.146 63.657-12.323 0-12.79-9.039-30.567-19.3-44.893C77.59 9.682 73.535.184 57.943.184c-38.57 0 6.117 14.182-36.425 34.79-42.542 20.61-13.423 38.62 18.678 41.646z" clip-rule="evenodd"/>
  <path fill="#382F32" d="M37.783 43.01c-.155-.972-.004-1.815.452-2.528a6.048 6.048 0 0 1 1.886-1.795 9.906 9.906 0 0 1 2.627-1.164c.95-.294 1.82-.503 2.606-.628 1.505-.239 2.814-.138 3.928.302a6.992 6.992 0 0 1 2.87 1.93c.803.869 1.444 1.918 1.924 3.147a18.42 18.42 0 0 1 1.035 3.822c.14.88.213 1.936.219 3.17.002 1.21-.08 2.48-.248 3.812a31.1 31.1 0 0 1-.793 3.97 17.995 17.995 0 0 1-1.345 3.631c-.563 1.086-1.248 2.002-2.056 2.747a5.115 5.115 0 0 1-2.773 1.366c-.208.033-.507-.204-.896-.712a34.715 34.715 0 0 1-1.337-2.137 87.617 87.617 0 0 1-1.63-3.088 282.042 282.042 0 0 1-1.723-3.677 130.02 130.02 0 0 1-1.682-3.862 1176.4 1176.4 0 0 0-1.493-3.572 52.136 52.136 0 0 1-1.065-2.892c-.275-.835-.444-1.449-.506-1.842zm3.196 1.521c.118.74.298 1.578.542 2.513.267.93.585 1.888.955 2.874.393.982.835 1.968 1.325 2.958.509.963 1.055 1.861 1.638 2.694a15.356 15.356 0 0 0 1.885 2.228c.67.63 1.385 1.097 2.145 1.404.61-1.236 1.135-2.34 1.574-3.312a16.57 16.57 0 0 0 1.005-2.864c.23-.939.347-1.919.351-2.94.027-1.024-.064-2.196-.274-3.516-.15-.949-.356-1.865-.615-2.75-.26-.884-.641-1.642-1.145-2.274a4.24 4.24 0 0 0-1.867-1.448c-.765-.33-1.714-.404-2.848-.224a8.413 8.413 0 0 0-2.637.881c-.812.414-1.587.917-2.323 1.508.01.07.021.21.031.422l.11.695c.037.231.063.465.076.7l.072.451zm29.194-3.888c-.144-.309-.364-.5-.66-.571a2.101 2.101 0 0 0-.896-.036 3.98 3.98 0 0 0-.897.178 4.974 4.974 0 0 1-.683.18c-.397.04-1.088.101-2.07.186-.984.085-2.048.183-3.194.294-1.125.083-2.18.168-3.163.253-.987.061-1.68.112-2.076.151a4.106 4.106 0 0 0-.09-.341 3.765 3.765 0 0 1-.096-.377 4.95 4.95 0 0 1-.068-.879c.029-.265.229-.499.6-.7 2.184-.3 4.323-.651 6.418-1.055 2.119-.407 4.222-.836 6.31-1.287a629.9 629.9 0 0 1 6.293-1.39c2.112-.454 4.244-.852 6.396-1.194.14.88.035 1.56-.316 2.044-.354.46-.832.808-1.435 1.046a7.97 7.97 0 0 1-1.986.494c-.745.094-1.46.22-2.148.376a5.507 5.507 0 0 0-1.739.704c-.476.289-.75.736-.82 1.34 0 .143.019.412.058.81.04.397.083.817.13 1.26.07.44.124.859.163 1.256l.128.799c.21 1.319.58 2.6 1.11 3.846.549 1.218 1.122 2.432 1.717 3.642a55.106 55.106 0 0 1 1.713 3.609c.546 1.194.922 2.44 1.128 3.736.154.972-.324 1.547-1.435 1.723-.671.107-1.347-.26-2.026-1.102-.657-.845-1.296-1.954-1.917-3.326a47.156 47.156 0 0 1-1.683-4.539 155.28 155.28 0 0 1-1.363-4.767 138.107 138.107 0 0 1-.963-4.047 77.244 77.244 0 0 1-.44-2.316z"/>
</svg>
