<svg width="25" height="26" viewBox="0 0 25 26" fill="currentColor" xmlns="http://www.w3.org/2000/svg">
<path d="M8.36189 20.0302C8.36189 20.1311 8.24597 20.2117 8.0998 20.2117C7.93347 20.2268 7.81754 20.1462 7.81754 20.0302C7.81754 19.9294 7.93347 19.8488 8.07964 19.8488C8.23085 19.8337 8.36189 19.9143 8.36189 20.0302ZM6.79435 19.8034C6.75907 19.9042 6.85988 20.0202 7.01109 20.0504C7.14214 20.1008 7.29335 20.0504 7.32359 19.9496C7.35383 19.8488 7.25806 19.7329 7.10685 19.6875C6.97581 19.6522 6.82964 19.7026 6.79435 19.8034ZM9.02218 19.7177C8.87601 19.753 8.7752 19.8488 8.79032 19.9647C8.80544 20.0655 8.93649 20.1311 9.0877 20.0958C9.23387 20.0605 9.33468 19.9647 9.31956 19.8639C9.30443 19.7681 9.16835 19.7026 9.02218 19.7177ZM12.3387 0.403229C5.34778 0.403229 0 5.71069 0 12.7016C0 18.2913 3.51815 23.0746 8.54335 24.7581C9.18851 24.874 9.41532 24.4758 9.41532 24.1482C9.41532 23.8357 9.4002 22.1119 9.4002 21.0534C9.4002 21.0534 5.87198 21.8095 5.13105 19.5514C5.13105 19.5514 4.55645 18.0847 3.72984 17.7067C3.72984 17.7067 2.5756 16.9153 3.81048 16.9304C3.81048 16.9304 5.06552 17.0313 5.75605 18.2309C6.85988 20.1764 8.70968 19.6169 9.43044 19.2843C9.54637 18.4778 9.87399 17.9184 10.2369 17.5857C7.41935 17.2732 4.57661 16.8649 4.57661 12.0161C4.57661 10.63 4.95968 9.93448 5.76613 9.04738C5.63508 8.71976 5.20665 7.36895 5.89718 5.625C6.9506 5.29738 9.375 6.98589 9.375 6.98589C10.3831 6.70363 11.4667 6.55746 12.5403 6.55746C13.6139 6.55746 14.6976 6.70363 15.7056 6.98589C15.7056 6.98589 18.13 5.29234 19.1835 5.625C19.874 7.37399 19.4456 8.71976 19.3145 9.04738C20.121 9.93952 20.6149 10.6351 20.6149 12.0161C20.6149 16.88 17.6462 17.2681 14.8286 17.5857C15.2923 17.9839 15.6855 18.7399 15.6855 19.9244C15.6855 21.623 15.6704 23.7248 15.6704 24.1381C15.6704 24.4657 15.9022 24.8639 16.5423 24.748C21.5827 23.0746 25 18.2913 25 12.7016C25 5.71069 19.3296 0.403229 12.3387 0.403229ZM4.89919 17.7873C4.83367 17.8377 4.84879 17.9536 4.93448 18.0494C5.01512 18.13 5.13105 18.1653 5.19657 18.0998C5.2621 18.0494 5.24698 17.9335 5.16129 17.8377C5.08065 17.7571 4.96472 17.7218 4.89919 17.7873ZM4.35484 17.379C4.31956 17.4446 4.36996 17.5252 4.47077 17.5756C4.55141 17.626 4.65222 17.6109 4.6875 17.5403C4.72278 17.4748 4.67238 17.3942 4.57157 17.3438C4.47077 17.3135 4.39012 17.3286 4.35484 17.379ZM5.9879 19.1734C5.90726 19.2389 5.9375 19.3901 6.05343 19.4859C6.16935 19.6018 6.31552 19.6169 6.38105 19.5363C6.44657 19.4708 6.41633 19.3196 6.31552 19.2238C6.20464 19.1079 6.05343 19.0927 5.9879 19.1734ZM5.41331 18.4325C5.33266 18.4829 5.33266 18.6139 5.41331 18.7298C5.49395 18.8458 5.63004 18.8962 5.69556 18.8458C5.77621 18.7802 5.77621 18.6492 5.69556 18.5333C5.625 18.4173 5.49395 18.3669 5.41331 18.4325Z" fill="currentColor"/>
</svg>
