<svg width="25" height="25" viewBox="0 0 25 25" fill="currentColor" xmlns="http://www.w3.org/2000/svg">
<g clip-path="url(#clip0)">
<path d="M5.13674 1.21581C4.98537 0.781242 4.37014 0.781242 4.21389 1.21581L1.4551 9.75097H7.90041C7.89553 9.75097 5.13674 1.21581 5.13674 1.21581ZM0.0439633 14.0478C-0.0829899 14.4385 0.0586117 14.873 0.390643 15.1221L12.4951 24.1064L1.45021 9.75097L0.0439633 14.0478ZM7.89553 9.75097L12.5 24.1064L17.1045 9.75097H7.89553ZM24.9561 14.0478L23.5498 9.75097L12.5 24.1064L24.6045 15.1221C24.9414 14.873 25.0781 14.4385 24.9561 14.0478ZM20.7862 1.21581C20.6348 0.781242 20.0195 0.781242 19.8633 1.21581L17.0996 9.75097H23.5449L20.7862 1.21581Z" fill="currentColor"/>
</g>
<defs>
<clipPath id="clip0">
<rect width="25" height="25" fill="currentColor"/>
</clipPath>
</defs>
</svg>
