<svg width="25" height="29" viewBox="0 0 25 29" fill="currentColor" xmlns="http://www.w3.org/2000/svg">
<g clip-path="url(#clip0)">
<path d="M12.5056 7.8683C8.95647 7.8683 6.09375 10.731 6.09375 14.2801C6.09375 17.8292 8.95647 20.692 12.5056 20.692C16.0547 20.692 18.9174 17.8292 18.9174 14.2801C18.9174 10.731 16.0547 7.8683 12.5056 7.8683ZM12.5056 18.4487C10.212 18.4487 8.33705 16.5792 8.33705 14.2801C8.33705 11.981 10.2065 10.1116 12.5056 10.1116C14.8047 10.1116 16.6741 11.981 16.6741 14.2801C16.6741 16.5792 14.7991 18.4487 12.5056 18.4487ZM20.6752 7.60602C20.6752 8.4375 20.0056 9.10156 19.1797 9.10156C18.3482 9.10156 17.6841 8.43192 17.6841 7.60602C17.6841 6.78013 18.3538 6.11049 19.1797 6.11049C20.0056 6.11049 20.6752 6.78013 20.6752 7.60602ZM24.9219 9.12388C24.827 7.12053 24.3694 5.34598 22.9018 3.88393C21.4397 2.42187 19.6652 1.96428 17.6618 1.86384C15.5971 1.74665 9.40847 1.74665 7.34375 1.86384C5.34598 1.9587 3.57143 2.41629 2.1038 3.87835C0.636164 5.3404 0.184156 7.11495 0.0837096 9.1183C-0.0334777 11.183 -0.0334777 17.3716 0.0837096 19.4364C0.178576 21.4397 0.636164 23.2143 2.1038 24.6763C3.57143 26.1384 5.3404 26.596 7.34375 26.6964C9.40847 26.8136 15.5971 26.8136 17.6618 26.6964C19.6652 26.6015 21.4397 26.144 22.9018 24.6763C24.3638 23.2143 24.8214 21.4397 24.9219 19.4364C25.039 17.3716 25.039 11.1886 24.9219 9.12388ZM22.2544 21.6518C21.8192 22.7455 20.9765 23.5882 19.8772 24.029C18.231 24.6819 14.3248 24.5312 12.5056 24.5312C10.6864 24.5312 6.77455 24.6763 5.13393 24.029C4.04018 23.5937 3.19755 22.7511 2.7567 21.6518C2.1038 20.0056 2.25447 16.0993 2.25447 14.2801C2.25447 12.4609 2.10938 8.5491 2.7567 6.90848C3.19196 5.81473 4.0346 4.9721 5.13393 4.53125C6.78013 3.87835 10.6864 4.02902 12.5056 4.02902C14.3248 4.02902 18.2366 3.88393 19.8772 4.53125C20.971 4.96652 21.8136 5.80915 22.2544 6.90848C22.9073 8.55468 22.7567 12.4609 22.7567 14.2801C22.7567 16.0993 22.9073 20.0112 22.2544 21.6518Z" fill="currentColor"/>
</g>
<defs>
<clipPath id="clip0">
<rect width="25" height="28.5714" fill="currentColor"/>
</clipPath>
</defs>
</svg>
