<svg width="25" height="29" viewBox="0 0 25 29" fill="currentColor" xmlns="http://www.w3.org/2000/svg">
<path d="M23.2143 1.78571H1.78013C0.797991 1.78571 0 2.59487 0 3.58817V24.9833C0 25.9766 0.797991 26.7857 1.78013 26.7857H23.2143C24.1964 26.7857 25 25.9766 25 24.9833V3.58817C25 2.59487 24.1964 1.78571 23.2143 1.78571ZM7.5558 23.2143H3.85045V11.2835H7.56138V23.2143H7.5558ZM5.70312 9.65402C4.51451 9.65402 3.55469 8.68861 3.55469 7.50558C3.55469 6.32254 4.51451 5.35714 5.70312 5.35714C6.88616 5.35714 7.85156 6.32254 7.85156 7.50558C7.85156 8.69419 6.89174 9.65402 5.70312 9.65402ZM21.4453 23.2143H17.74V17.4107C17.74 16.0268 17.7121 14.2466 15.8147 14.2466C13.8839 14.2466 13.5882 15.7533 13.5882 17.3103V23.2143H9.88281V11.2835H13.4375V12.9129H13.4877C13.9844 11.9754 15.1953 10.9877 16.9978 10.9877C20.7478 10.9877 21.4453 13.4598 21.4453 16.6741V23.2143Z" fill="currentColor"/>
</svg>
