<svg width="104" height="80" viewBox="0 0 104 80" fill="none" xmlns="http://www.w3.org/2000/svg">
<path fill-rule="evenodd" clip-rule="evenodd" d="M40.1957 76.6197C72.296 79.6446 103.853 85.7659 103.853 64.2969C103.853 51.5068 94.814 33.7304 84.5529 19.4036C77.5899 9.68174 73.5353 0.183716 57.943 0.183716C19.3723 0.183716 64.0598 14.3662 21.518 34.9747C-21.0237 55.5831 8.09531 73.5948 40.1957 76.6197Z" fill="#FFC498"/>
<path d="M37.7827 43.0098C37.6282 42.0376 37.779 41.1949 38.2352 40.4817C38.7145 39.7649 39.3433 39.1667 40.1214 38.6872C40.919 38.1808 41.7947 37.7926 42.7485 37.5225C43.6986 37.2293 44.5672 37.0202 45.3542 36.8952C46.8588 36.6563 48.1681 36.7569 49.2823 37.197C50.4159 37.6103 51.3725 38.2534 52.152 39.1264C52.9547 39.9956 53.596 41.0447 54.0762 42.2737C54.5563 43.5027 54.9012 44.7769 55.1109 46.0962C55.2508 46.9758 55.3237 48.0321 55.3299 49.2652C55.3323 50.4751 55.2496 51.746 55.0816 53.0778C54.9099 54.3866 54.6456 55.71 54.2887 57.0482C53.9513 58.3595 53.503 59.5698 52.9436 60.679C52.3806 61.7651 51.6955 62.6808 50.8884 63.4259C50.1044 64.1674 49.1801 64.6227 48.1153 64.7917C47.907 64.8248 47.6082 64.5875 47.219 64.0797C46.8492 63.5452 46.4037 62.8328 45.8825 61.9426C45.3845 61.0487 44.8412 60.0196 44.2527 58.8553C43.6836 57.6641 43.1091 56.4383 42.529 55.1777C41.9452 53.894 41.3846 52.6066 40.8472 51.3155C40.3097 50.0245 39.812 48.8339 39.3539 47.7438C38.919 46.65 38.564 45.686 38.289 44.8516C38.014 44.0172 37.8452 43.4033 37.7827 43.0098ZM40.9791 44.5312C41.0969 45.2719 41.2774 46.1094 41.5209 47.0438C41.7875 47.9744 42.1059 48.9324 42.4761 49.9178C42.8694 50.8995 43.3109 51.8855 43.8006 52.8756C44.3097 53.839 44.8559 54.7371 45.4392 55.57C46.0225 56.4029 46.6507 57.1456 47.324 57.7981C47.9936 58.4274 48.7087 58.8953 49.4694 59.2016C50.0798 57.9656 50.6044 56.8619 51.0433 55.8904C51.4822 54.919 51.8169 53.964 52.0475 53.0256C52.278 52.0873 52.3952 51.1075 52.399 50.0865C52.426 49.0618 52.3346 47.8897 52.1249 46.5704C51.9741 45.6213 51.769 44.7046 51.5098 43.8203C51.2506 42.9359 50.869 42.1778 50.3651 41.5459C49.8807 40.8871 49.2582 40.4046 48.4975 40.0982C47.7332 39.7686 46.7839 39.6939 45.6497 39.874C44.7238 40.021 43.8449 40.3148 43.0132 40.7554C42.2009 41.1691 41.4264 41.6718 40.6898 42.2634C40.7009 42.3328 40.7114 42.4735 40.7213 42.6855C40.7545 42.8939 40.7912 43.1253 40.8317 43.3799C40.8685 43.6114 40.8937 43.8447 40.9074 44.0799C40.9405 44.2882 40.9644 44.4386 40.9791 44.5312ZM70.1734 40.6433C70.0293 40.334 69.8092 40.1435 69.513 40.0718C69.24 39.9965 68.9414 39.9846 68.6174 40.0361C68.3128 40.0607 68.0137 40.12 67.7201 40.2141C67.4266 40.3082 67.1988 40.3681 67.0368 40.3938C66.6396 40.4331 65.9494 40.4953 64.9661 40.5802C63.9829 40.6651 62.9186 40.7629 61.7734 40.8736C60.6476 40.9574 59.5931 41.0418 58.6098 41.1267C57.6229 41.1885 56.9309 41.239 56.5337 41.2784C56.5263 41.2321 56.4963 41.1182 56.4438 40.9367C56.3912 40.7552 56.3594 40.6297 56.3483 40.5603C56.2968 40.2362 56.274 39.9432 56.2798 39.6812C56.3088 39.4156 56.509 39.1821 56.8804 38.9807C59.0636 38.6815 61.2029 38.33 63.2983 37.9261C65.4169 37.5185 67.5202 37.0896 69.6082 36.6394C71.7157 36.1624 73.8134 35.6988 75.9015 35.2486C78.0126 34.7948 80.1446 34.3969 82.2973 34.0551C82.4371 34.9347 82.3318 35.6159 81.9814 36.0987C81.6273 36.5583 81.1488 36.9072 80.5459 37.1453C79.9661 37.3798 79.304 37.5442 78.5596 37.6387C77.8152 37.7332 77.0995 37.8587 76.4124 38.0152C75.7485 38.1681 75.1687 38.4026 74.6731 38.7186C74.197 39.0077 73.9239 39.4545 73.8539 40.0589C73.8528 40.2015 73.872 40.4713 73.9114 40.8685C73.9508 41.2657 73.9938 41.686 74.0406 42.1295C74.1105 42.5693 74.1652 42.9878 74.2045 43.3849C74.2634 43.7553 74.3057 44.0215 74.3315 44.1835C74.5412 45.5029 74.9111 46.7849 75.4412 48.0297C75.9908 49.2477 76.5635 50.4619 77.1594 51.6725C77.7747 52.8563 78.3456 54.059 78.872 55.2806C79.4179 56.4754 79.7939 57.721 79.9999 59.0172C80.1544 59.9894 79.6761 60.5637 78.5651 60.7401C77.8938 60.8467 77.2184 60.4793 76.5388 59.6379C75.8824 58.7929 75.2434 57.6841 74.6218 56.3115C74.0233 54.9352 73.4624 53.4224 72.9392 51.7731C72.4392 50.1201 71.9849 48.5311 71.5763 47.0059C71.1909 45.4771 70.8697 44.128 70.6126 42.9585C70.3787 41.7854 70.2323 41.0137 70.1734 40.6433Z" fill="#382F32"/>
</svg>
